<?xml version="1.0" encoding="UTF-8"?>
<svg width="14px" height="14px" viewBox="0 0 14 14" version="1.1" xmlns="http://www.w3.org/2000/svg" xmlns:xlink="http://www.w3.org/1999/xlink">
    <!-- Generator: Sketch 59.1 (86144) - https://sketch.com -->
    <title>手机@2x</title>
    <desc>Created with Sketch.</desc>
    <g id="首页登录_忘记密码" stroke="none" stroke-width="1" fill="none" fill-rule="evenodd">
        <g id="行情大厅" transform="translate(-1157.000000, -695.000000)">
            <g id="编组" transform="translate(1147.000000, 645.000000)" stroke="#EAEAEA">
                <rect id="矩形-copy-6" x="0.5" y="0.5" width="292" height="134"></rect>
            </g>
            <path d="M1168.08006,695 L1159.92529,695 C1159.4165,695 1159,695.358028 1159,695.804077 L1159,708.200197 C1159,708.641972 1159.41163,709 1159.92529,709 L1168.08006,709 C1168.5879,709 1169,708.641972 1169,708.200197 L1169,695.799803 C1169,695.358028 1168.5879,695 1168.08006,695 M1163.23437,695.799803 L1164.77538,695.799803 C1164.88184,695.799803 1164.96874,695.875859 1164.96874,695.968139 C1164.96874,696.060855 1164.88184,696.136476 1164.77538,696.136476 L1163.23437,696.136476 C1163.12793,696.136476 1163.04054,696.060855 1163.04054,695.968139 C1163.04054,695.875859 1163.12793,695.799803 1163.23437,695.799803 M1163.99999,708.431783 C1163.53466,708.431783 1163.15234,708.1028 1163.15234,707.694344 C1163.15234,707.291033 1163.52978,706.957776 1163.99999,706.957776 C1164.46972,706.957776 1164.84765,707.285902 1164.84765,707.694344 C1164.84765,708.1028 1164.46974,708.431783 1163.99999,708.431783 M1168.15626,705.993911 C1168.15626,706.216935 1167.94923,706.393805 1167.69727,706.393805 L1160.30812,706.393805 C1160.05129,706.393805 1159.84767,706.212647 1159.84767,705.993911 L1159.84767,697.206301 C1159.84767,696.98329 1160.05617,696.805984 1160.30812,696.805984 L1167.69142,696.805984 C1167.94924,696.805984 1168.15236,696.987128 1168.15236,697.206301 L1168.15236,705.993911 L1168.15626,705.993911 Z" id="形状" fill="#646464" fill-rule="nonzero"></path>
        </g>
    </g>
</svg>